<svg xmlns="http://www.w3.org/2000/svg" width="1400" height="1336" viewBox="0 0 1400 1336">
<rect width="1400" height="1336" fill="#0f1117"/>
<text x="56" y="44" font-family="Segoe UI, system-ui, sans-serif" font-size="28" font-weight="700" fill="#ffffff" letter-spacing="-0.5">ClinicConnect — Navigation Flow</text>
<text x="56" y="66" font-family="Segoe UI, system-ui, sans-serif" font-size="11" font-weight="700" fill="#6b7280" letter-spacing="1">SCREEN ROUTING BY USER ROLE</text>
<rect x="56" y="120" width="3" height="20" fill="#60a5fa"/>
<text x="66" y="134" font-family="Segoe UI, system-ui, sans-serif" font-size="11" font-weight="700" fill="#60a5fa" letter-spacing="1">AUTHENTICATION</text>
<line x1="56" y1="146" x2="1344" y2="146" stroke="#1f2937" stroke-width="1"/>
<rect x="56" y="160" width="72" height="30" rx="8" fill="#1e2a3a" stroke="#1e40af" stroke-width="1.5"/>
<text x="92.0" y="179.2" text-anchor="middle" font-family="Segoe UI, system-ui, sans-serif" font-size="12" font-weight="600" fill="#93c5fd">Splash</text>
<line x1="128" y1="175.0" x2="150" y2="175.0" stroke="#2563eb" stroke-width="2"/>
<polygon points="149,171.0 157,175.0 149,179.0" fill="#2563eb"/>
<rect x="156" y="160" width="65" height="30" rx="8" fill="#1e2a3a" stroke="#1e40af" stroke-width="1.5"/>
<text x="188.5" y="179.2" text-anchor="middle" font-family="Segoe UI, system-ui, sans-serif" font-size="12" font-weight="600" fill="#93c5fd">Login</text>
<line x1="221" y1="175.0" x2="243" y2="175.0" stroke="#2563eb" stroke-width="2"/>
<polygon points="242,171.0 250,175.0 242,179.0" fill="#2563eb"/>
<rect x="249" y="157" width="130" height="36" rx="10" fill="#60a5fa" stroke="#60a5fa" stroke-width="1.5"/>
<text x="314.0" y="179.55" text-anchor="middle" font-family="Segoe UI, system-ui, sans-serif" font-size="13" font-weight="700" fill="#0f1117">Role Selection</text>
<line x1="379" y1="175.0" x2="401" y2="175.0" stroke="#2563eb" stroke-width="2"/>
<polygon points="400,171.0 408,175.0 400,179.0" fill="#2563eb"/>
<rect x="407" y="160" width="86" height="30" rx="8" fill="#1e2a3a" stroke="#1e40af" stroke-width="1.5"/>
<text x="450.0" y="179.2" text-anchor="middle" font-family="Segoe UI, system-ui, sans-serif" font-size="12" font-weight="600" fill="#93c5fd">Main App</text>
<text x="88" y="219.2" font-family="monospace" font-size="12" fill="#4b5563">↳ forgot</text>
<rect x="158" y="200" width="139" height="30" rx="8" fill="#1e2a3a" stroke="#1e40af" stroke-width="1.5"/>
<text x="227.5" y="219.2" text-anchor="middle" font-family="Segoe UI, system-ui, sans-serif" font-size="12" font-weight="600" fill="#93c5fd">Forgot Password</text>
<line x1="297" y1="215.0" x2="319" y2="215.0" stroke="#2563eb" stroke-width="2"/>
<polygon points="318,211.0 326,215.0 318,219.0" fill="#2563eb"/>
<rect x="325" y="200" width="97" height="30" rx="8" fill="#1e2a3a" stroke="#1e40af" stroke-width="1.5"/>
<text x="373.5" y="219.2" text-anchor="middle" font-family="Segoe UI, system-ui, sans-serif" font-size="12" font-weight="600" fill="#93c5fd">OTP Verify</text>
<line x1="422" y1="215.0" x2="444" y2="215.0" stroke="#2563eb" stroke-width="2"/>
<polygon points="443,211.0 451,215.0 443,219.0" fill="#2563eb"/>
<rect x="450" y="200" width="131" height="30" rx="8" fill="#1e2a3a" stroke="#1e40af" stroke-width="1.5"/>
<text x="515.5" y="219.2" text-anchor="middle" font-family="Segoe UI, system-ui, sans-serif" font-size="12" font-weight="600" fill="#93c5fd">Reset Password</text>
<text x="88" y="259.2" font-family="monospace" font-size="12" fill="#4b5563">↳ new user</text>
<rect x="158" y="240" width="85" height="30" rx="8" fill="#1e2a3a" stroke="#1e40af" stroke-width="1.5"/>
<text x="200.5" y="259.2" text-anchor="middle" font-family="Segoe UI, system-ui, sans-serif" font-size="12" font-weight="600" fill="#93c5fd">Register</text>
<line x1="243" y1="255.0" x2="265" y2="255.0" stroke="#2563eb" stroke-width="2"/>
<polygon points="264,251.0 272,255.0 264,259.0" fill="#2563eb"/>
<rect x="271" y="240" width="67" height="30" rx="8" fill="#1e2a3a" stroke="#1e40af" stroke-width="1.5"/>
<text x="304.5" y="259.2" text-anchor="middle" font-family="Segoe UI, system-ui, sans-serif" font-size="12" font-weight="600" fill="#93c5fd">Step 1</text>
<line x1="338" y1="255.0" x2="360" y2="255.0" stroke="#2563eb" stroke-width="2"/>
<polygon points="359,251.0 367,255.0 359,259.0" fill="#2563eb"/>
<rect x="366" y="240" width="70" height="30" rx="8" fill="#1e2a3a" stroke="#1e40af" stroke-width="1.5"/>
<text x="401.0" y="259.2" text-anchor="middle" font-family="Segoe UI, system-ui, sans-serif" font-size="12" font-weight="600" fill="#93c5fd">Step 2</text>
<line x1="436" y1="255.0" x2="458" y2="255.0" stroke="#2563eb" stroke-width="2"/>
<polygon points="457,251.0 465,255.0 457,259.0" fill="#2563eb"/>
<rect x="464" y="240" width="65" height="30" rx="8" fill="#1e2a3a" stroke="#1e40af" stroke-width="1.5"/>
<text x="496.5" y="259.2" text-anchor="middle" font-family="Segoe UI, system-ui, sans-serif" font-size="12" font-weight="600" fill="#93c5fd">Login</text>
<rect x="56" y="312" width="3" height="20" fill="#34d399"/>
<text x="66" y="326" font-family="Segoe UI, system-ui, sans-serif" font-size="11" font-weight="700" fill="#34d399" letter-spacing="1">PATIENT</text>
<line x1="56" y1="338" x2="1344" y2="338" stroke="#1f2937" stroke-width="1"/>
<rect x="56" y="349" width="119" height="36" rx="10" fill="#34d399" stroke="#34d399" stroke-width="1.5"/>
<text x="115.5" y="371.55" text-anchor="middle" font-family="Segoe UI, system-ui, sans-serif" font-size="13" font-weight="700" fill="#0f1117">Patient Home</text>
<text x="56" y="417.2" font-family="monospace" font-size="12" fill="#4b5563">├─</text>
<rect x="126" y="398" width="92" height="30" rx="8" fill="#1a2e25" stroke="#065f46" stroke-width="1.5"/>
<text x="172.0" y="417.2" text-anchor="middle" font-family="Segoe UI, system-ui, sans-serif" font-size="12" font-weight="600" fill="#6ee7b7">Book Appt</text>
<line x1="218" y1="413.0" x2="240" y2="413.0" stroke="#059669" stroke-width="2"/>
<polygon points="239,409.0 247,413.0 239,417.0" fill="#059669"/>
<rect x="246" y="398" width="67" height="30" rx="8" fill="#1a2e25" stroke="#065f46" stroke-width="1.5"/>
<text x="279.5" y="417.2" text-anchor="middle" font-family="Segoe UI, system-ui, sans-serif" font-size="12" font-weight="600" fill="#6ee7b7">Clinic</text>
<line x1="313" y1="413.0" x2="335" y2="413.0" stroke="#059669" stroke-width="2"/>
<polygon points="334,409.0 342,413.0 334,417.0" fill="#059669"/>
<rect x="341" y="398" width="80" height="30" rx="8" fill="#1a2e25" stroke="#065f46" stroke-width="1.5"/>
<text x="381.0" y="417.2" text-anchor="middle" font-family="Segoe UI, system-ui, sans-serif" font-size="12" font-weight="600" fill="#6ee7b7">Service</text>
<line x1="421" y1="413.0" x2="443" y2="413.0" stroke="#059669" stroke-width="2"/>
<polygon points="442,409.0 450,413.0 442,417.0" fill="#059669"/>
<rect x="449" y="398" width="59" height="30" rx="8" fill="#1a2e25" stroke="#065f46" stroke-width="1.5"/>
<text x="478.5" y="417.2" text-anchor="middle" font-family="Segoe UI, system-ui, sans-serif" font-size="12" font-weight="600" fill="#6ee7b7">Time</text>
<line x1="508" y1="413.0" x2="530" y2="413.0" stroke="#059669" stroke-width="2"/>
<polygon points="529,409.0 537,413.0 529,417.0" fill="#059669"/>
<rect x="536" y="398" width="79" height="30" rx="8" fill="#1a2e25" stroke="#065f46" stroke-width="1.5"/>
<text x="575.5" y="417.2" text-anchor="middle" font-family="Segoe UI, system-ui, sans-serif" font-size="12" font-weight="600" fill="#6ee7b7">Confirm</text>
<line x1="615" y1="413.0" x2="637" y2="413.0" stroke="#059669" stroke-width="2"/>
<polygon points="636,409.0 644,413.0 636,417.0" fill="#059669"/>
<rect x="643" y="398" width="72" height="30" rx="8" fill="#1a2e25" stroke="#065f46" stroke-width="1.5"/>
<text x="679.0" y="417.2" text-anchor="middle" font-family="Segoe UI, system-ui, sans-serif" font-size="12" font-weight="600" fill="#6ee7b7">✓ Done</text>
<text x="712" y="417.2" font-family="monospace" font-size="12" fill="#4b5563">├─</text>
<rect x="782" y="398" width="114" height="30" rx="8" fill="#1a2e25" stroke="#065f46" stroke-width="1.5"/>
<text x="839.0" y="417.2" text-anchor="middle" font-family="Segoe UI, system-ui, sans-serif" font-size="12" font-weight="600" fill="#6ee7b7">Appointments</text>
<line x1="896" y1="413.0" x2="918" y2="413.0" stroke="#059669" stroke-width="2"/>
<polygon points="917,409.0 925,413.0 917,417.0" fill="#059669"/>
<rect x="924" y="398" width="67" height="30" rx="8" fill="#1a2e25" stroke="#065f46" stroke-width="1.5"/>
<text x="957.5" y="417.2" text-anchor="middle" font-family="Segoe UI, system-ui, sans-serif" font-size="12" font-weight="600" fill="#6ee7b7">Detail</text>
<line x1="991" y1="413.0" x2="1013" y2="413.0" stroke="#059669" stroke-width="2"/>
<polygon points="1012,409.0 1020,413.0 1012,417.0" fill="#059669"/>
<rect x="1019" y="398" width="162" height="30" rx="8" fill="#1a2e25" stroke="#065f46" stroke-width="1.5"/>
<text x="1100.0" y="417.2" text-anchor="middle" font-family="Segoe UI, system-ui, sans-serif" font-size="12" font-weight="600" fill="#6ee7b7">Reschedule / Cancel</text>
<text x="56" y="457.2" font-family="monospace" font-size="12" fill="#4b5563">├─</text>
<rect x="126" y="438" width="136" height="30" rx="8" fill="#1a2e25" stroke="#065f46" stroke-width="1.5"/>
<text x="194.0" y="457.2" text-anchor="middle" font-family="Segoe UI, system-ui, sans-serif" font-size="12" font-weight="600" fill="#6ee7b7">Medical Records</text>
<line x1="262" y1="453.0" x2="284" y2="453.0" stroke="#059669" stroke-width="2"/>
<polygon points="283,449.0 291,453.0 283,457.0" fill="#059669"/>
<rect x="290" y="438" width="77" height="30" rx="8" fill="#1a2e25" stroke="#065f46" stroke-width="1.5"/>
<text x="328.5" y="457.2" text-anchor="middle" font-family="Segoe UI, system-ui, sans-serif" font-size="12" font-weight="600" fill="#6ee7b7">History</text>
<line x1="367" y1="453.0" x2="389" y2="453.0" stroke="#059669" stroke-width="2"/>
<polygon points="388,449.0 396,453.0 388,457.0" fill="#059669"/>
<rect x="395" y="438" width="89" height="30" rx="8" fill="#1a2e25" stroke="#065f46" stroke-width="1.5"/>
<text x="439.5" y="457.2" text-anchor="middle" font-family="Segoe UI, system-ui, sans-serif" font-size="12" font-weight="600" fill="#6ee7b7">Download</text>
<text x="712" y="457.2" font-family="monospace" font-size="12" fill="#4b5563">├─</text>
<rect x="782" y="438" width="102" height="30" rx="8" fill="#1a2e25" stroke="#065f46" stroke-width="1.5"/>
<text x="833.0" y="457.2" text-anchor="middle" font-family="Segoe UI, system-ui, sans-serif" font-size="12" font-weight="600" fill="#6ee7b7">Health Tips</text>
<line x1="884" y1="453.0" x2="906" y2="453.0" stroke="#059669" stroke-width="2"/>
<polygon points="905,449.0 913,453.0 905,457.0" fill="#059669"/>
<rect x="912" y="438" width="76" height="30" rx="8" fill="#1a2e25" stroke="#065f46" stroke-width="1.5"/>
<text x="950.0" y="457.2" text-anchor="middle" font-family="Segoe UI, system-ui, sans-serif" font-size="12" font-weight="600" fill="#6ee7b7">Browse</text>
<line x1="988" y1="453.0" x2="1010" y2="453.0" stroke="#059669" stroke-width="2"/>
<polygon points="1009,449.0 1017,453.0 1009,457.0" fill="#059669"/>
<rect x="1016" y="438" width="60" height="30" rx="8" fill="#1a2e25" stroke="#065f46" stroke-width="1.5"/>
<text x="1046.0" y="457.2" text-anchor="middle" font-family="Segoe UI, system-ui, sans-serif" font-size="12" font-weight="600" fill="#6ee7b7">Read</text>
<line x1="1076" y1="453.0" x2="1098" y2="453.0" stroke="#059669" stroke-width="2"/>
<polygon points="1097,449.0 1105,453.0 1097,457.0" fill="#059669"/>
<rect x="1104" y="438" width="57" height="30" rx="8" fill="#1a2e25" stroke="#065f46" stroke-width="1.5"/>
<text x="1132.5" y="457.2" text-anchor="middle" font-family="Segoe UI, system-ui, sans-serif" font-size="12" font-weight="600" fill="#6ee7b7">Rate</text>
<text x="56" y="497.2" font-family="monospace" font-size="12" fill="#4b5563">├─</text>
<rect x="126" y="478" width="125" height="30" rx="8" fill="#1a2e25" stroke="#065f46" stroke-width="1.5"/>
<text x="188.5" y="497.2" text-anchor="middle" font-family="Segoe UI, system-ui, sans-serif" font-size="12" font-weight="600" fill="#6ee7b7">Nearby Clinics</text>
<line x1="251" y1="493.0" x2="273" y2="493.0" stroke="#059669" stroke-width="2"/>
<polygon points="272,489.0 280,493.0 272,497.0" fill="#059669"/>
<rect x="279" y="478" width="101" height="30" rx="8" fill="#1a2e25" stroke="#065f46" stroke-width="1.5"/>
<text x="329.5" y="497.2" text-anchor="middle" font-family="Segoe UI, system-ui, sans-serif" font-size="12" font-weight="600" fill="#6ee7b7">View Clinic</text>
<line x1="380" y1="493.0" x2="402" y2="493.0" stroke="#059669" stroke-width="2"/>
<polygon points="401,489.0 409,493.0 401,497.0" fill="#059669"/>
<rect x="408" y="478" width="92" height="30" rx="8" fill="#1a2e25" stroke="#065f46" stroke-width="1.5"/>
<text x="454.0" y="497.2" text-anchor="middle" font-family="Segoe UI, system-ui, sans-serif" font-size="12" font-weight="600" fill="#6ee7b7">Book Appt</text>
<text x="712" y="497.2" font-family="monospace" font-size="12" fill="#4b5563">├─</text>
<rect x="782" y="478" width="112" height="30" rx="8" fill="#1a2e25" stroke="#065f46" stroke-width="1.5"/>
<text x="838.0" y="497.2" text-anchor="middle" font-family="Segoe UI, system-ui, sans-serif" font-size="12" font-weight="600" fill="#6ee7b7">Notifications</text>
<line x1="894" y1="493.0" x2="916" y2="493.0" stroke="#059669" stroke-width="2"/>
<polygon points="915,489.0 923,493.0 915,497.0" fill="#059669"/>
<rect x="922" y="478" width="59" height="30" rx="8" fill="#1a2e25" stroke="#065f46" stroke-width="1.5"/>
<text x="951.5" y="497.2" text-anchor="middle" font-family="Segoe UI, system-ui, sans-serif" font-size="12" font-weight="600" fill="#6ee7b7">View</text>
<line x1="981" y1="493.0" x2="1003" y2="493.0" stroke="#059669" stroke-width="2"/>
<polygon points="1002,489.0 1010,493.0 1002,497.0" fill="#059669"/>
<rect x="1009" y="478" width="82" height="30" rx="8" fill="#1a2e25" stroke="#065f46" stroke-width="1.5"/>
<text x="1050.0" y="497.2" text-anchor="middle" font-family="Segoe UI, system-ui, sans-serif" font-size="12" font-weight="600" fill="#6ee7b7">Settings</text>
<text x="56" y="537.2" font-family="monospace" font-size="12" fill="#4b5563">└─</text>
<rect x="126" y="518" width="75" height="30" rx="8" fill="#1a2e25" stroke="#065f46" stroke-width="1.5"/>
<text x="163.5" y="537.2" text-anchor="middle" font-family="Segoe UI, system-ui, sans-serif" font-size="12" font-weight="600" fill="#6ee7b7">Profile</text>
<line x1="201" y1="533.0" x2="223" y2="533.0" stroke="#059669" stroke-width="2"/>
<polygon points="222,529.0 230,533.0 222,537.0" fill="#059669"/>
<rect x="229" y="518" width="105" height="30" rx="8" fill="#1a2e25" stroke="#065f46" stroke-width="1.5"/>
<text x="281.5" y="537.2" text-anchor="middle" font-family="Segoe UI, system-ui, sans-serif" font-size="12" font-weight="600" fill="#6ee7b7">Edit Profile</text>
<line x1="334" y1="533.0" x2="356" y2="533.0" stroke="#059669" stroke-width="2"/>
<polygon points="355,529.0 363,533.0 355,537.0" fill="#059669"/>
<rect x="362" y="518" width="141" height="30" rx="8" fill="#1a2e25" stroke="#065f46" stroke-width="1.5"/>
<text x="432.5" y="537.2" text-anchor="middle" font-family="Segoe UI, system-ui, sans-serif" font-size="12" font-weight="600" fill="#6ee7b7">Change Password</text>
<line x1="503" y1="533.0" x2="525" y2="533.0" stroke="#059669" stroke-width="2"/>
<polygon points="524,529.0 532,533.0 524,537.0" fill="#059669"/>
<rect x="531" y="518" width="72" height="30" rx="8" fill="#1a2e25" stroke="#065f46" stroke-width="1.5"/>
<text x="567.0" y="537.2" text-anchor="middle" font-family="Segoe UI, system-ui, sans-serif" font-size="12" font-weight="600" fill="#6ee7b7">Logout</text>
<rect x="56" y="590" width="3" height="20" fill="#a78bfa"/>
<text x="66" y="604" font-family="Segoe UI, system-ui, sans-serif" font-size="11" font-weight="700" fill="#a78bfa" letter-spacing="1">STAFF — DOCTOR</text>
<line x1="56" y1="616" x2="1344" y2="616" stroke="#1f2937" stroke-width="1"/>
<rect x="56" y="627" width="117" height="36" rx="10" fill="#a78bfa" stroke="#a78bfa" stroke-width="1.5"/>
<text x="114.5" y="649.55" text-anchor="middle" font-family="Segoe UI, system-ui, sans-serif" font-size="13" font-weight="700" fill="#0f1117">Doctor Home</text>
<text x="56" y="695.2" font-family="monospace" font-size="12" fill="#4b5563">├─</text>
<rect x="126" y="676" width="103" height="30" rx="8" fill="#221a3a" stroke="#4c1d95" stroke-width="1.5"/>
<text x="177.5" y="695.2" text-anchor="middle" font-family="Segoe UI, system-ui, sans-serif" font-size="12" font-weight="600" fill="#c4b5fd">View Queue</text>
<line x1="229" y1="691.0" x2="251" y2="691.0" stroke="#7c3aed" stroke-width="2"/>
<polygon points="250,687.0 258,691.0 250,695.0" fill="#7c3aed"/>
<rect x="257" y="676" width="120" height="30" rx="8" fill="#221a3a" stroke="#4c1d95" stroke-width="1.5"/>
<text x="317.0" y="695.2" text-anchor="middle" font-family="Segoe UI, system-ui, sans-serif" font-size="12" font-weight="600" fill="#c4b5fd">Select Patient</text>
<line x1="377" y1="691.0" x2="399" y2="691.0" stroke="#7c3aed" stroke-width="2"/>
<polygon points="398,687.0 406,691.0 398,695.0" fill="#7c3aed"/>
<rect x="405" y="676" width="129" height="30" rx="8" fill="#221a3a" stroke="#4c1d95" stroke-width="1.5"/>
<text x="469.5" y="695.2" text-anchor="middle" font-family="Segoe UI, system-ui, sans-serif" font-size="12" font-weight="600" fill="#c4b5fd">Medical Record</text>
<line x1="534" y1="691.0" x2="556" y2="691.0" stroke="#7c3aed" stroke-width="2"/>
<polygon points="555,687.0 563,691.0 555,695.0" fill="#7c3aed"/>
<rect x="562" y="676" width="92" height="30" rx="8" fill="#221a3a" stroke="#4c1d95" stroke-width="1.5"/>
<text x="608.0" y="695.2" text-anchor="middle" font-family="Segoe UI, system-ui, sans-serif" font-size="12" font-weight="600" fill="#c4b5fd">Add Notes</text>
<text x="712" y="695.2" font-family="monospace" font-size="12" fill="#4b5563">├─</text>
<rect x="782" y="676" width="125" height="30" rx="8" fill="#221a3a" stroke="#4c1d95" stroke-width="1.5"/>
<text x="844.5" y="695.2" text-anchor="middle" font-family="Segoe UI, system-ui, sans-serif" font-size="12" font-weight="600" fill="#c4b5fd">Search Patient</text>
<line x1="907" y1="691.0" x2="929" y2="691.0" stroke="#7c3aed" stroke-width="2"/>
<polygon points="928,687.0 936,691.0 928,695.0" fill="#7c3aed"/>
<rect x="935" y="676" width="109" height="30" rx="8" fill="#221a3a" stroke="#4c1d95" stroke-width="1.5"/>
<text x="989.5" y="695.2" text-anchor="middle" font-family="Segoe UI, system-ui, sans-serif" font-size="12" font-weight="600" fill="#c4b5fd">View Patient</text>
<line x1="1044" y1="691.0" x2="1066" y2="691.0" stroke="#7c3aed" stroke-width="2"/>
<polygon points="1065,687.0 1073,691.0 1065,695.0" fill="#7c3aed"/>
<rect x="1072" y="676" width="92" height="30" rx="8" fill="#221a3a" stroke="#4c1d95" stroke-width="1.5"/>
<text x="1118.0" y="695.2" text-anchor="middle" font-family="Segoe UI, system-ui, sans-serif" font-size="12" font-weight="600" fill="#c4b5fd">Add Notes</text>
<text x="56" y="735.2" font-family="monospace" font-size="12" fill="#4b5563">├─</text>
<rect x="126" y="716" width="145" height="30" rx="8" fill="#221a3a" stroke="#4c1d95" stroke-width="1.5"/>
<text x="198.5" y="735.2" text-anchor="middle" font-family="Segoe UI, system-ui, sans-serif" font-size="12" font-weight="600" fill="#c4b5fd">Today's Schedule</text>
<line x1="271" y1="731.0" x2="293" y2="731.0" stroke="#7c3aed" stroke-width="2"/>
<polygon points="292,727.0 300,731.0 292,735.0" fill="#7c3aed"/>
<rect x="299" y="716" width="148" height="30" rx="8" fill="#221a3a" stroke="#4c1d95" stroke-width="1.5"/>
<text x="373.0" y="735.2" text-anchor="middle" font-family="Segoe UI, system-ui, sans-serif" font-size="12" font-weight="600" fill="#c4b5fd">View Appointments</text>
<text x="712" y="735.2" font-family="monospace" font-size="12" fill="#4b5563">└─</text>
<rect x="782" y="716" width="144" height="30" rx="8" fill="#221a3a" stroke="#4c1d95" stroke-width="1.5"/>
<text x="854.0" y="735.2" text-anchor="middle" font-family="Segoe UI, system-ui, sans-serif" font-size="12" font-weight="600" fill="#c4b5fd">Emergency Alerts</text>
<line x1="926" y1="731.0" x2="948" y2="731.0" stroke="#7c3aed" stroke-width="2"/>
<polygon points="947,727.0 955,731.0 947,735.0" fill="#7c3aed"/>
<rect x="954" y="716" width="82" height="30" rx="8" fill="#221a3a" stroke="#4c1d95" stroke-width="1.5"/>
<text x="995.0" y="735.2" text-anchor="middle" font-family="Segoe UI, system-ui, sans-serif" font-size="12" font-weight="600" fill="#c4b5fd">Respond</text>
<rect x="56" y="788" width="3" height="20" fill="#f472b6"/>
<text x="66" y="802" font-family="Segoe UI, system-ui, sans-serif" font-size="11" font-weight="700" fill="#f472b6" letter-spacing="1">STAFF — NURSE</text>
<line x1="56" y1="814" x2="1344" y2="814" stroke="#1f2937" stroke-width="1"/>
<rect x="56" y="825" width="112" height="36" rx="10" fill="#f472b6" stroke="#f472b6" stroke-width="1.5"/>
<text x="112.0" y="847.55" text-anchor="middle" font-family="Segoe UI, system-ui, sans-serif" font-size="13" font-weight="700" fill="#0f1117">Nurse Home</text>
<text x="56" y="893.2" font-family="monospace" font-size="12" fill="#4b5563">├─</text>
<rect x="126" y="874" width="113" height="30" rx="8" fill="#2d1a26" stroke="#831843" stroke-width="1.5"/>
<text x="182.5" y="893.2" text-anchor="middle" font-family="Segoe UI, system-ui, sans-serif" font-size="12" font-weight="600" fill="#f9a8d4">Waiting Room</text>
<line x1="239" y1="889.0" x2="261" y2="889.0" stroke="#be185d" stroke-width="2"/>
<polygon points="260,885.0 268,889.0 260,893.0" fill="#be185d"/>
<rect x="267" y="874" width="120" height="30" rx="8" fill="#2d1a26" stroke="#831843" stroke-width="1.5"/>
<text x="327.0" y="893.2" text-anchor="middle" font-family="Segoe UI, system-ui, sans-serif" font-size="12" font-weight="600" fill="#f9a8d4">Select Patient</text>
<line x1="387" y1="889.0" x2="409" y2="889.0" stroke="#be185d" stroke-width="2"/>
<polygon points="408,885.0 416,889.0 408,893.0" fill="#be185d"/>
<rect x="415" y="874" width="117" height="30" rx="8" fill="#2d1a26" stroke="#831843" stroke-width="1.5"/>
<text x="473.5" y="893.2" text-anchor="middle" font-family="Segoe UI, system-ui, sans-serif" font-size="12" font-weight="600" fill="#f9a8d4">Record Vitals</text>
<line x1="532" y1="889.0" x2="554" y2="889.0" stroke="#be185d" stroke-width="2"/>
<polygon points="553,885.0 561,889.0 553,893.0" fill="#be185d"/>
<rect x="560" y="874" width="125" height="30" rx="8" fill="#2d1a26" stroke="#831843" stroke-width="1.5"/>
<text x="622.5" y="893.2" text-anchor="middle" font-family="Segoe UI, system-ui, sans-serif" font-size="12" font-weight="600" fill="#f9a8d4">Send to Doctor</text>
<text x="712" y="893.2" font-family="monospace" font-size="12" fill="#4b5563">├─</text>
<rect x="782" y="874" width="135" height="30" rx="8" fill="#2d1a26" stroke="#831843" stroke-width="1.5"/>
<text x="849.5" y="893.2" text-anchor="middle" font-family="Segoe UI, system-ui, sans-serif" font-size="12" font-weight="600" fill="#f9a8d4">Register Patient</text>
<line x1="917" y1="889.0" x2="939" y2="889.0" stroke="#be185d" stroke-width="2"/>
<polygon points="938,885.0 946,889.0 938,893.0" fill="#be185d"/>
<rect x="945" y="874" width="115" height="30" rx="8" fill="#2d1a26" stroke="#831843" stroke-width="1.5"/>
<text x="1002.5" y="893.2" text-anchor="middle" font-family="Segoe UI, system-ui, sans-serif" font-size="12" font-weight="600" fill="#f9a8d4">Enter Details</text>
<line x1="1060" y1="889.0" x2="1082" y2="889.0" stroke="#be185d" stroke-width="2"/>
<polygon points="1081,885.0 1089,889.0 1081,893.0" fill="#be185d"/>
<rect x="1088" y="874" width="122" height="30" rx="8" fill="#2d1a26" stroke="#831843" stroke-width="1.5"/>
<text x="1149.0" y="893.2" text-anchor="middle" font-family="Segoe UI, system-ui, sans-serif" font-size="12" font-weight="600" fill="#f9a8d4">Create Record</text>
<text x="56" y="933.2" font-family="monospace" font-size="12" fill="#4b5563">├─</text>
<rect x="126" y="914" width="125" height="30" rx="8" fill="#2d1a26" stroke="#831843" stroke-width="1.5"/>
<text x="188.5" y="933.2" text-anchor="middle" font-family="Segoe UI, system-ui, sans-serif" font-size="12" font-weight="600" fill="#f9a8d4">Search Patient</text>
<line x1="251" y1="929.0" x2="273" y2="929.0" stroke="#be185d" stroke-width="2"/>
<polygon points="272,925.0 280,929.0 272,933.0" fill="#be185d"/>
<rect x="279" y="914" width="109" height="30" rx="8" fill="#2d1a26" stroke="#831843" stroke-width="1.5"/>
<text x="333.5" y="933.2" text-anchor="middle" font-family="Segoe UI, system-ui, sans-serif" font-size="12" font-weight="600" fill="#f9a8d4">View Patient</text>
<line x1="388" y1="929.0" x2="410" y2="929.0" stroke="#be185d" stroke-width="2"/>
<polygon points="409,925.0 417,929.0 409,933.0" fill="#be185d"/>
<rect x="416" y="914" width="115" height="30" rx="8" fill="#2d1a26" stroke="#831843" stroke-width="1.5"/>
<text x="473.5" y="933.2" text-anchor="middle" font-family="Segoe UI, system-ui, sans-serif" font-size="12" font-weight="600" fill="#f9a8d4">Update Vitals</text>
<text x="712" y="933.2" font-family="monospace" font-size="12" fill="#4b5563">└─</text>
<rect x="782" y="914" width="114" height="30" rx="8" fill="#2d1a26" stroke="#831843" stroke-width="1.5"/>
<text x="839.0" y="933.2" text-anchor="middle" font-family="Segoe UI, system-ui, sans-serif" font-size="12" font-weight="600" fill="#f9a8d4">View Reports</text>
<line x1="896" y1="929.0" x2="918" y2="929.0" stroke="#be185d" stroke-width="2"/>
<polygon points="917,925.0 925,929.0 917,933.0" fill="#be185d"/>
<rect x="924" y="914" width="135" height="30" rx="8" fill="#2d1a26" stroke="#831843" stroke-width="1.5"/>
<text x="991.5" y="933.2" text-anchor="middle" font-family="Segoe UI, system-ui, sans-serif" font-size="12" font-weight="600" fill="#f9a8d4">Generate Report</text>
<rect x="56" y="986" width="3" height="20" fill="#fb923c"/>
<text x="66" y="1000" font-family="Segoe UI, system-ui, sans-serif" font-size="11" font-weight="700" fill="#fb923c" letter-spacing="1">ADMIN</text>
<line x1="56" y1="1012" x2="1344" y2="1012" stroke="#1f2937" stroke-width="1"/>
<rect x="56" y="1023" width="147" height="36" rx="10" fill="#fb923c" stroke="#fb923c" stroke-width="1.5"/>
<text x="129.5" y="1045.55" text-anchor="middle" font-family="Segoe UI, system-ui, sans-serif" font-size="13" font-weight="700" fill="#0f1117">Admin Dashboard</text>
<text x="56" y="1091.2" font-family="monospace" font-size="12" fill="#4b5563">├─</text>
<rect x="126" y="1072" width="126" height="30" rx="8" fill="#2a1f14" stroke="#92400e" stroke-width="1.5"/>
<text x="189.0" y="1091.2" text-anchor="middle" font-family="Segoe UI, system-ui, sans-serif" font-size="12" font-weight="600" fill="#fdba74">Manage Clinics</text>
<line x1="252" y1="1087.0" x2="274" y2="1087.0" stroke="#c2410c" stroke-width="2"/>
<polygon points="273,1083.0 281,1087.0 273,1091.0" fill="#c2410c"/>
<rect x="280" y="1072" width="152" height="30" rx="8" fill="#2a1f14" stroke="#92400e" stroke-width="1.5"/>
<text x="356.0" y="1091.2" text-anchor="middle" font-family="Segoe UI, system-ui, sans-serif" font-size="12" font-weight="600" fill="#fdba74">Add / Edit / Delete</text>
<line x1="432" y1="1087.0" x2="454" y2="1087.0" stroke="#c2410c" stroke-width="2"/>
<polygon points="453,1083.0 461,1087.0 453,1091.0" fill="#c2410c"/>
<rect x="460" y="1072" width="139" height="30" rx="8" fill="#2a1f14" stroke="#92400e" stroke-width="1.5"/>
<text x="529.5" y="1091.2" text-anchor="middle" font-family="Segoe UI, system-ui, sans-serif" font-size="12" font-weight="600" fill="#fdba74">Manage Services</text>
<text x="712" y="1091.2" font-family="monospace" font-size="12" fill="#4b5563">├─</text>
<rect x="782" y="1072" width="111" height="30" rx="8" fill="#2a1f14" stroke="#92400e" stroke-width="1.5"/>
<text x="837.5" y="1091.2" text-anchor="middle" font-family="Segoe UI, system-ui, sans-serif" font-size="12" font-weight="600" fill="#fdba74">Manage Staff</text>
<line x1="893" y1="1087.0" x2="915" y2="1087.0" stroke="#c2410c" stroke-width="2"/>
<polygon points="914,1083.0 922,1087.0 914,1091.0" fill="#c2410c"/>
<rect x="921" y="1072" width="94" height="30" rx="8" fill="#2a1f14" stroke="#92400e" stroke-width="1.5"/>
<text x="968.0" y="1091.2" text-anchor="middle" font-family="Segoe UI, system-ui, sans-serif" font-size="12" font-weight="600" fill="#fdba74">View Staff</text>
<line x1="1015" y1="1087.0" x2="1037" y2="1087.0" stroke="#c2410c" stroke-width="2"/>
<polygon points="1036,1083.0 1044,1087.0 1036,1091.0" fill="#c2410c"/>
<rect x="1043" y="1072" width="152" height="30" rx="8" fill="#2a1f14" stroke="#92400e" stroke-width="1.5"/>
<text x="1119.0" y="1091.2" text-anchor="middle" font-family="Segoe UI, system-ui, sans-serif" font-size="12" font-weight="600" fill="#fdba74">Add / Edit / Delete</text>
<text x="56" y="1131.2" font-family="monospace" font-size="12" fill="#4b5563">├─</text>
<rect x="126" y="1112" width="139" height="30" rx="8" fill="#2a1f14" stroke="#92400e" stroke-width="1.5"/>
<text x="195.5" y="1131.2" text-anchor="middle" font-family="Segoe UI, system-ui, sans-serif" font-size="12" font-weight="600" fill="#fdba74">Manage Services</text>
<line x1="265" y1="1127.0" x2="287" y2="1127.0" stroke="#c2410c" stroke-width="2"/>
<polygon points="286,1123.0 294,1127.0 286,1131.0" fill="#c2410c"/>
<rect x="293" y="1112" width="152" height="30" rx="8" fill="#2a1f14" stroke="#92400e" stroke-width="1.5"/>
<text x="369.0" y="1131.2" text-anchor="middle" font-family="Segoe UI, system-ui, sans-serif" font-size="12" font-weight="600" fill="#fdba74">Add / Edit / Delete</text>
<line x1="445" y1="1127.0" x2="467" y2="1127.0" stroke="#c2410c" stroke-width="2"/>
<polygon points="466,1123.0 474,1127.0 466,1131.0" fill="#c2410c"/>
<rect x="473" y="1112" width="140" height="30" rx="8" fill="#2a1f14" stroke="#92400e" stroke-width="1.5"/>
<text x="543.0" y="1131.2" text-anchor="middle" font-family="Segoe UI, system-ui, sans-serif" font-size="12" font-weight="600" fill="#fdba74">Assign to Clinics</text>
<text x="712" y="1131.2" font-family="monospace" font-size="12" fill="#4b5563">├─</text>
<rect x="782" y="1112" width="96" height="30" rx="8" fill="#2a1f14" stroke="#92400e" stroke-width="1.5"/>
<text x="830.0" y="1131.2" text-anchor="middle" font-family="Segoe UI, system-ui, sans-serif" font-size="12" font-weight="600" fill="#fdba74">Time Slots</text>
<line x1="878" y1="1127.0" x2="900" y2="1127.0" stroke="#c2410c" stroke-width="2"/>
<polygon points="899,1123.0 907,1127.0 899,1131.0" fill="#c2410c"/>
<rect x="906" y="1112" width="130" height="30" rx="8" fill="#2a1f14" stroke="#92400e" stroke-width="1.5"/>
<text x="971.0" y="1131.2" text-anchor="middle" font-family="Segoe UI, system-ui, sans-serif" font-size="12" font-weight="600" fill="#fdba74">Configure Slots</text>
<line x1="1036" y1="1127.0" x2="1058" y2="1127.0" stroke="#c2410c" stroke-width="2"/>
<polygon points="1057,1123.0 1065,1127.0 1057,1131.0" fill="#c2410c"/>
<rect x="1064" y="1112" width="130" height="30" rx="8" fill="#2a1f14" stroke="#92400e" stroke-width="1.5"/>
<text x="1129.0" y="1131.2" text-anchor="middle" font-family="Segoe UI, system-ui, sans-serif" font-size="12" font-weight="600" fill="#fdba74">Set Availability</text>
<text x="56" y="1171.2" font-family="monospace" font-size="12" fill="#4b5563">├─</text>
<rect x="126" y="1152" width="114" height="30" rx="8" fill="#2a1f14" stroke="#92400e" stroke-width="1.5"/>
<text x="183.0" y="1171.2" text-anchor="middle" font-family="Segoe UI, system-ui, sans-serif" font-size="12" font-weight="600" fill="#fdba74">View Reports</text>
<line x1="240" y1="1167.0" x2="262" y2="1167.0" stroke="#c2410c" stroke-width="2"/>
<polygon points="261,1163.0 269,1167.0 261,1171.0" fill="#c2410c"/>
<rect x="268" y="1152" width="90" height="30" rx="8" fill="#2a1f14" stroke="#92400e" stroke-width="1.5"/>
<text x="313.0" y="1171.2" text-anchor="middle" font-family="Segoe UI, system-ui, sans-serif" font-size="12" font-weight="600" fill="#fdba74">Analytics</text>
<line x1="358" y1="1167.0" x2="380" y2="1167.0" stroke="#c2410c" stroke-width="2"/>
<polygon points="379,1163.0 387,1167.0 379,1171.0" fill="#c2410c"/>
<rect x="386" y="1152" width="105" height="30" rx="8" fill="#2a1f14" stroke="#92400e" stroke-width="1.5"/>
<text x="438.5" y="1171.2" text-anchor="middle" font-family="Segoe UI, system-ui, sans-serif" font-size="12" font-weight="600" fill="#fdba74">Export Data</text>
<text x="712" y="1171.2" font-family="monospace" font-size="12" fill="#4b5563">└─</text>
<rect x="782" y="1152" width="131" height="30" rx="8" fill="#2a1f14" stroke="#92400e" stroke-width="1.5"/>
<text x="847.5" y="1171.2" text-anchor="middle" font-family="Segoe UI, system-ui, sans-serif" font-size="12" font-weight="600" fill="#fdba74">System Settings</text>
<line x1="913" y1="1167.0" x2="935" y2="1167.0" stroke="#c2410c" stroke-width="2"/>
<polygon points="934,1163.0 942,1167.0 934,1171.0" fill="#c2410c"/>
<rect x="941" y="1152" width="141" height="30" rx="8" fill="#2a1f14" stroke="#92400e" stroke-width="1.5"/>
<text x="1011.5" y="1171.2" text-anchor="middle" font-family="Segoe UI, system-ui, sans-serif" font-size="12" font-weight="600" fill="#fdba74">Configure System</text>
<rect x="56" y="1224" width="3" height="20" fill="#f87171"/>
<text x="66" y="1238" font-family="Segoe UI, system-ui, sans-serif" font-size="11" font-weight="700" fill="#f87171" letter-spacing="1">EMERGENCY FLOW</text>
<line x1="56" y1="1250" x2="1344" y2="1250" stroke="#1f2937" stroke-width="1"/>
<rect x="56" y="1261" width="70" height="36" rx="10" fill="#f87171" stroke="#f87171" stroke-width="1.5"/>
<text x="91.0" y="1283.55" text-anchor="middle" font-family="Segoe UI, system-ui, sans-serif" font-size="13" font-weight="700" fill="#0f1117">Alert</text>
<line x1="126" y1="1279.0" x2="148" y2="1279.0" stroke="#dc2626" stroke-width="2"/>
<polygon points="147,1275.0 155,1279.0 147,1283.0" fill="#dc2626"/>
<rect x="154" y="1264" width="140" height="30" rx="8" fill="#2a1414" stroke="#991b1b" stroke-width="1.5"/>
<text x="224.0" y="1283.2" text-anchor="middle" font-family="Segoe UI, system-ui, sans-serif" font-size="12" font-weight="600" fill="#fca5a5">Notify Responder</text>
<line x1="294" y1="1279.0" x2="316" y2="1279.0" stroke="#dc2626" stroke-width="2"/>
<polygon points="315,1275.0 323,1279.0 315,1283.0" fill="#dc2626"/>
<rect x="322" y="1264" width="72" height="30" rx="8" fill="#2a1414" stroke="#991b1b" stroke-width="1.5"/>
<text x="358.0" y="1283.2" text-anchor="middle" font-family="Segoe UI, system-ui, sans-serif" font-size="12" font-weight="600" fill="#fca5a5">Accept</text>
<line x1="394" y1="1279.0" x2="416" y2="1279.0" stroke="#dc2626" stroke-width="2"/>
<polygon points="415,1275.0 423,1279.0 415,1283.0" fill="#dc2626"/>
<rect x="422" y="1264" width="85" height="30" rx="8" fill="#2a1414" stroke="#991b1b" stroke-width="1.5"/>
<text x="464.5" y="1283.2" text-anchor="middle" font-family="Segoe UI, system-ui, sans-serif" font-size="12" font-weight="600" fill="#fca5a5">Dispatch</text>
<line x1="507" y1="1279.0" x2="529" y2="1279.0" stroke="#dc2626" stroke-width="2"/>
<polygon points="528,1275.0 536,1279.0 528,1283.0" fill="#dc2626"/>
<rect x="535" y="1264" width="85" height="30" rx="8" fill="#2a1414" stroke="#991b1b" stroke-width="1.5"/>
<text x="577.5" y="1283.2" text-anchor="middle" font-family="Segoe UI, system-ui, sans-serif" font-size="12" font-weight="600" fill="#fca5a5">En Route</text>
<line x1="620" y1="1279.0" x2="642" y2="1279.0" stroke="#dc2626" stroke-width="2"/>
<polygon points="641,1275.0 649,1279.0 641,1283.0" fill="#dc2626"/>
<rect x="648" y="1264" width="87" height="30" rx="8" fill="#2a1414" stroke="#991b1b" stroke-width="1.5"/>
<text x="691.5" y="1283.2" text-anchor="middle" font-family="Segoe UI, system-ui, sans-serif" font-size="12" font-weight="600" fill="#fca5a5">On Scene</text>
<line x1="735" y1="1279.0" x2="757" y2="1279.0" stroke="#dc2626" stroke-width="2"/>
<polygon points="756,1275.0 764,1279.0 756,1283.0" fill="#dc2626"/>
<rect x="763" y="1264" width="100" height="30" rx="8" fill="#2a1414" stroke="#991b1b" stroke-width="1.5"/>
<text x="813.0" y="1283.2" text-anchor="middle" font-family="Segoe UI, system-ui, sans-serif" font-size="12" font-weight="600" fill="#fca5a5">✓ Resolved</text>
</svg>